<svg xmlns="http://www.w3.org/2000/svg" width="150" height="380"><rect x="20" y="376.35" width="30" height="3.65" fill="rgb(255, 255, 255)" shape-rendering="crispEdges"/><rect x="20" y="372.7" width="30" height="3.65" fill="rgb(254, 254, 254)" shape-rendering="crispEdges"/><rect x="20" y="369.05" width="30" height="3.65" fill="rgb(253, 253, 253)" shape-rendering="crispEdges"/><rect x="20" y="365.4" width="30" height="3.65" fill="rgb(251, 251, 251)" shape-rendering="crispEdges"/><rect x="20" y="361.75" width="30" height="3.65" fill="rgb(250, 250, 250)" shape-rendering="crispEdges"/><rect x="20" y="358.1" width="30" height="3.65" fill="rgb(249, 249, 249)" shape-rendering="crispEdges"/><rect x="20" y="354.45" width="30" height="3.65" fill="rgb(248, 248, 248)" shape-rendering="crispEdges"/><rect x="20" y="350.8" width="30" height="3.65" fill="rgb(246, 246, 246)" shape-rendering="crispEdges"/><rect x="20" y="347.15" width="30" height="3.65" fill="rgb(245, 245, 245)" shape-rendering="crispEdges"/><rect x="20" y="343.5" width="30" height="3.65" fill="rgb(244, 244, 244)" shape-rendering="crispEdges"/><rect x="20" y="339.85" width="30" height="3.65" fill="rgb(242, 242, 242)" shape-rendering="crispEdges"/><rect x="20" y="336.2" width="30" height="3.65" fill="rgb(241, 241, 241)" shape-rendering="crispEdges"/><rect x="20" y="332.55" width="30" height="3.65" fill="rgb(239, 239, 239)" shape-rendering="crispEdges"/><rect x="20" y="328.9" width="30" height="3.65" fill="rgb(238, 238, 238)" shape-rendering="crispEdges"/><rect x="20" y="325.25" width="30" height="3.65" fill="rgb(236, 236, 236)" shape-rendering="crispEdges"/><rect x="20" y="321.6" width="30" height="3.65" fill="rgb(234, 234, 234)" shape-rendering="crispEdges"/><rect x="20" y="317.95" width="30" height="3.65" fill="rgb(233, 233, 233)" shape-rendering="crispEdges"/><rect x="20" y="314.3" width="30" height="3.65" fill="rgb(231, 231, 231)" shape-rendering="crispEdges"/><rect x="20" y="310.65" width="30" height="3.65" fill="rgb(229, 229, 229)" shape-rendering="crispEdges"/><rect x="20" y="307" width="30" height="3.65" fill="rgb(227, 227, 227)" shape-rendering="crispEdges"/><rect x="20" y="303.35" width="30" height="3.65" fill="rgb(226, 226, 226)" shape-rendering="crispEdges"/><rect x="20" y="299.7" width="30" height="3.65" fill="rgb(224, 224, 224)" shape-rendering="crispEdges"/><rect x="20" y="296.05" width="30" height="3.65" fill="rgb(222, 222, 222)" shape-rendering="crispEdges"/><rect x="20" y="292.4" width="30" height="3.65" fill="rgb(220, 220, 220)" shape-rendering="crispEdges"/><rect x="20" y="288.75" width="30" height="3.65" fill="rgb(218, 218, 218)" shape-rendering="crispEdges"/><rect x="20" y="285.1" width="30" height="3.65" fill="rgb(216, 216, 216)" shape-rendering="crispEdges"/><rect x="20" y="281.45" width="30" height="3.65" fill="rgb(214, 214, 214)" shape-rendering="crispEdges"/><rect x="20" y="277.8" width="30" height="3.65" fill="rgb(211, 211, 211)" shape-rendering="crispEdges"/><rect x="20" y="274.15" width="30" height="3.65" fill="rgb(209, 209, 209)" shape-rendering="crispEdges"/><rect x="20" y="270.5" width="30" height="3.65" fill="rgb(207, 207, 207)" shape-rendering="crispEdges"/><rect x="20" y="266.85" width="30" height="3.65" fill="rgb(205, 205, 205)" shape-rendering="crispEdges"/><rect x="20" y="263.2" width="30" height="3.65" fill="rgb(203, 203, 203)" shape-rendering="crispEdges"/><rect x="20" y="259.55" width="30" height="3.65" fill="rgb(200, 200, 200)" shape-rendering="crispEdges"/><rect x="20" y="255.9" width="30" height="3.65" fill="rgb(198, 198, 198)" shape-rendering="crispEdges"/><rect x="20" y="252.25" width="30" height="3.65" fill="rgb(195, 195, 195)" shape-rendering="crispEdges"/><rect x="20" y="248.6" width="30" height="3.65" fill="rgb(193, 193, 193)" shape-rendering="crispEdges"/><rect x="20" y="244.95000000000002" width="30" height="3.65" fill="rgb(190, 190, 190)" shape-rendering="crispEdges"/><rect x="20" y="241.3" width="30" height="3.65" fill="rgb(188, 188, 188)" shape-rendering="crispEdges"/><rect x="20" y="237.65" width="30" height="3.65" fill="rgb(185, 185, 185)" shape-rendering="crispEdges"/><rect x="20" y="234" width="30" height="3.65" fill="rgb(182, 182, 182)" shape-rendering="crispEdges"/><rect x="20" y="230.35" width="30" height="3.65" fill="rgb(179, 179, 179)" shape-rendering="crispEdges"/><rect x="20" y="226.70000000000002" width="30" height="3.65" fill="rgb(176, 176, 176)" shape-rendering="crispEdges"/><rect x="20" y="223.05" width="30" height="3.65" fill="rgb(173, 173, 173)" shape-rendering="crispEdges"/><rect x="20" y="219.4" width="30" height="3.65" fill="rgb(170, 170, 170)" shape-rendering="crispEdges"/><rect x="20" y="215.75" width="30" height="3.65" fill="rgb(167, 167, 167)" shape-rendering="crispEdges"/><rect x="20" y="212.1" width="30" height="3.65" fill="rgb(164, 164, 164)" shape-rendering="crispEdges"/><rect x="20" y="208.45000000000002" width="30" height="3.65" fill="rgb(161, 161, 161)" shape-rendering="crispEdges"/><rect x="20" y="204.8" width="30" height="3.65" fill="rgb(158, 158, 158)" shape-rendering="crispEdges"/><rect x="20" y="201.15" width="30" height="3.65" fill="rgb(155, 155, 155)" shape-rendering="crispEdges"/><rect x="20" y="197.5" width="30" height="3.65" fill="rgb(152, 152, 152)" shape-rendering="crispEdges"/><rect x="20" y="193.85" width="30" height="3.65" fill="rgb(149, 149, 149)" shape-rendering="crispEdges"/><rect x="20" y="190.20000000000002" width="30" height="3.65" fill="rgb(146, 146, 146)" shape-rendering="crispEdges"/><rect x="20" y="186.55" width="30" height="3.65" fill="rgb(143, 143, 143)" shape-rendering="crispEdges"/><rect x="20" y="182.9" width="30" height="3.65" fill="rgb(140, 140, 140)" shape-rendering="crispEdges"/><rect x="20" y="179.25" width="30" height="3.65" fill="rgb(137, 137, 137)" shape-rendering="crispEdges"/><rect x="20" y="175.6" width="30" height="3.65" fill="rgb(135, 135, 135)" shape-rendering="crispEdges"/><rect x="20" y="171.95000000000002" width="30" height="3.65" fill="rgb(132, 132, 132)" shape-rendering="crispEdges"/><rect x="20" y="168.3" width="30" height="3.65" fill="rgb(129, 129, 129)" shape-rendering="crispEdges"/><rect x="20" y="164.65" width="30" height="3.65" fill="rgb(126, 126, 126)" shape-rendering="crispEdges"/><rect x="20" y="161" width="30" height="3.65" fill="rgb(123, 123, 123)" shape-rendering="crispEdges"/><rect x="20" y="157.35" width="30" height="3.65" fill="rgb(121, 121, 121)" shape-rendering="crispEdges"/><rect x="20" y="153.70000000000002" width="30" height="3.65" fill="rgb(118, 118, 118)" shape-rendering="crispEdges"/><rect x="20" y="150.05" width="30" height="3.65" fill="rgb(115, 115, 115)" shape-rendering="crispEdges"/><rect x="20" y="146.4" width="30" height="3.65" fill="rgb(112, 112, 112)" shape-rendering="crispEdges"/><rect x="20" y="142.75" width="30" height="3.65" fill="rgb(110, 110, 110)" shape-rendering="crispEdges"/><rect x="20" y="139.1" width="30" height="3.65" fill="rgb(107, 107, 107)" shape-rendering="crispEdges"/><rect x="20" y="135.45000000000002" width="30" height="3.65" fill="rgb(104, 104, 104)" shape-rendering="crispEdges"/><rect x="20" y="131.8" width="30" height="3.65" fill="rgb(101, 101, 101)" shape-rendering="crispEdges"/><rect x="20" y="128.15" width="30" height="3.65" fill="rgb(98, 98, 98)" shape-rendering="crispEdges"/><rect x="20" y="124.5" width="30" height="3.65" fill="rgb(96, 96, 96)" shape-rendering="crispEdges"/><rect x="20" y="120.85000000000002" width="30" height="3.65" fill="rgb(93, 93, 93)" shape-rendering="crispEdges"/><rect x="20" y="117.19999999999999" width="30" height="3.65" fill="rgb(90, 90, 90)" shape-rendering="crispEdges"/><rect x="20" y="113.55000000000001" width="30" height="3.65" fill="rgb(87, 87, 87)" shape-rendering="crispEdges"/><rect x="20" y="109.90000000000003" width="30" height="3.65" fill="rgb(84, 84, 84)" shape-rendering="crispEdges"/><rect x="20" y="106.25" width="30" height="3.65" fill="rgb(81, 81, 81)" shape-rendering="crispEdges"/><rect x="20" y="102.60000000000002" width="30" height="3.65" fill="rgb(78, 78, 78)" shape-rendering="crispEdges"/><rect x="20" y="98.94999999999999" width="30" height="3.65" fill="rgb(74, 74, 74)" shape-rendering="crispEdges"/><rect x="20" y="95.30000000000001" width="30" height="3.65" fill="rgb(71, 71, 71)" shape-rendering="crispEdges"/><rect x="20" y="91.65000000000003" width="30" height="3.65" fill="rgb(68, 68, 68)" shape-rendering="crispEdges"/><rect x="20" y="88" width="30" height="3.65" fill="rgb(64, 64, 64)" shape-rendering="crispEdges"/><rect x="20" y="84.35000000000002" width="30" height="3.65" fill="rgb(61, 61, 61)" shape-rendering="crispEdges"/><rect x="20" y="80.69999999999999" width="30" height="3.65" fill="rgb(57, 57, 57)" shape-rendering="crispEdges"/><rect x="20" y="77.05000000000001" width="30" height="3.65" fill="rgb(54, 54, 54)" shape-rendering="crispEdges"/><rect x="20" y="73.40000000000003" width="30" height="3.65" fill="rgb(51, 51, 51)" shape-rendering="crispEdges"/><rect x="20" y="69.75" width="30" height="3.65" fill="rgb(47, 47, 47)" shape-rendering="crispEdges"/><rect x="20" y="66.10000000000002" width="30" height="3.65" fill="rgb(44, 44, 44)" shape-rendering="crispEdges"/><rect x="20" y="62.44999999999999" width="30" height="3.65" fill="rgb(40, 40, 40)" shape-rendering="crispEdges"/><rect x="20" y="58.80000000000001" width="30" height="3.65" fill="rgb(37, 37, 37)" shape-rendering="crispEdges"/><rect x="20" y="55.150000000000034" width="30" height="3.65" fill="rgb(34, 34, 34)" shape-rendering="crispEdges"/><rect x="20" y="51.5" width="30" height="3.65" fill="rgb(31, 31, 31)" shape-rendering="crispEdges"/><rect x="20" y="47.85000000000002" width="30" height="3.65" fill="rgb(27, 27, 27)" shape-rendering="crispEdges"/><rect x="20" y="44.19999999999999" width="30" height="3.65" fill="rgb(24, 24, 24)" shape-rendering="crispEdges"/><rect x="20" y="40.55000000000001" width="30" height="3.65" fill="rgb(21, 21, 21)" shape-rendering="crispEdges"/><rect x="20" y="36.900000000000034" width="30" height="3.65" fill="rgb(18, 18, 18)" shape-rendering="crispEdges"/><rect x="20" y="33.25" width="30" height="3.65" fill="rgb(15, 15, 15)" shape-rendering="crispEdges"/><rect x="20" y="29.600000000000023" width="30" height="3.65" fill="rgb(12, 12, 12)" shape-rendering="crispEdges"/><rect x="20" y="25.94999999999999" width="30" height="3.65" fill="rgb(9, 9, 9)" shape-rendering="crispEdges"/><rect x="20" y="22.30000000000001" width="30" height="3.65" fill="rgb(6, 6, 6)" shape-rendering="crispEdges"/><rect x="20" y="18.650000000000034" width="30" height="3.65" fill="rgb(3, 3, 3)" shape-rendering="crispEdges"/><rect x="20" y="15" width="30" height="3.65" fill="rgb(0, 0, 0)" shape-rendering="crispEdges"/><text x="60" y="376.7" font-size="11">0 hPa</text><text x="60" y="306.62" font-size="11">3 hPa</text><text x="60" y="236.54" font-size="11">6 hPa</text><text x="60" y="166.46" font-size="11">8 hPa</text><text x="60" y="96.38" font-size="11">11 hPa</text><text x="60" y="26.30000000000001" font-size="11">14 hPa</text><text x="20" y="10" font-size="12">Standardabweichung</text></svg>